<?xml version="1.0" encoding="UTF-8"?><svg id="Layer_1" xmlns="http://www.w3.org/2000/svg" xmlns:xlink="http://www.w3.org/1999/xlink" viewBox="0 0 773.95 145.06"><defs><style>.cls-1{fill:#fff;}.cls-2{fill:#e31937;}.cls-3{clip-path:url(#clippath);}.cls-4{fill-rule:evenodd;}.cls-4,.cls-5{fill:#261c02;}</style><clipPath id="clippath"><ellipse class="cls-2" cx="95.44" cy="74.85" rx="93.28" ry="70.2"/></clipPath></defs><g><ellipse class="cls-2" cx="95.44" cy="74.85" rx="93.28" ry="70.2"/><g class="cls-3"><g><polygon class="cls-1" points="185.62 118.7 84.3 118.7 0 34.39 10.5 23.88 90.45 103.84 185.62 103.84 185.62 118.7"/><rect class="cls-1" x="82.43" width="14.85" height="112.2"/><rect class="cls-1" x="73.44" y="63.09" width="120.53" height="14.85" transform="translate(-10.7 115.21) rotate(-45)"/></g></g></g><g><path class="cls-4" d="M208.46,53.91h12.58v27.13c.06,6.24,.21,10.18,.46,11.83,.32,2.31,1.37,3.83,3.14,4.55,1.77,.72,5.34,1.08,10.72,1.08,4.37,0,7.39-.18,9.08-.54,1.69-.36,2.88-1.08,3.59-2.14,.47-.75,.79-1.66,.99-2.73,.19-1.07,.34-2.9,.44-5.5,.1-2.66,.15-4.84,.15-6.54v-27.13h12.58v27.13c-.14,9.42-.35,15.59-.64,18.5-.5,4.96-2.16,8.59-4.97,10.9-1.59,1.33-3.84,2.22-6.75,2.68-2.91,.46-7.68,.69-14.32,.69-4.99,0-8.83-.13-11.54-.39-2.7-.26-5.06-.72-7.05-1.38-4.42-1.5-7-5.3-7.75-11.41-.28-2.33-.46-4.45-.53-6.36-.07-1.9-.13-6.31-.17-13.23v-27.13Z"/><polygon class="cls-4" points="272.73 53.91 294.79 53.91 316.42 97.98 317.73 97.98 317.42 53.91 330.22 53.91 330.22 112.93 308.35 112.93 286.62 68.87 285.26 68.87 285.53 112.93 272.73 112.93 272.73 53.91"/><rect class="cls-5" x="340.92" y="53.91" width="13.19" height="59.02"/><polygon class="cls-4" points="361.91 53.91 411.9 53.91 411.9 68.96 393.5 68.96 393.5 112.93 380.31 112.93 380.31 68.96 361.91 68.96 361.91 53.91"/><path class="cls-4" d="M419.69,112.93V53.91h30.42c7.13,.03,11.4,.14,12.81,.32,1.41,.19,2.77,.86,4.08,2.01,1.57,1.36,2.65,3.22,3.23,5.6,.58,2.38,.88,6.12,.88,11.23,0,4.3-.19,7.46-.56,9.48-.37,2.02-1.07,3.64-2.1,4.85-1.11,1.3-2.77,2.19-5,2.68,2.64,.29,4.53,1.37,5.68,3.24,.66,1.12,1.09,2.48,1.27,4.08,.18,1.6,.27,4.95,.27,10.04v5.47h-12.39v-3.15c0-3.28-.09-5.61-.26-7-.17-1.39-.49-2.46-.95-3.21-.46-.69-1.11-1.13-1.92-1.31-.82-.19-2.53-.28-5.13-.28h-17.75v14.95h-12.58Zm12.58-29.73h17.72c3.07-.09,4.9-.17,5.49-.24,.59-.07,1.1-.29,1.52-.67,.54-.49,.92-1.22,1.14-2.18,.22-.96,.33-2.43,.33-4.38s-.13-3.37-.38-4.32c-.25-.95-.69-1.64-1.31-2.07-.44-.29-.97-.46-1.58-.52-.61-.06-2.36-.1-5.25-.13h-17.69v14.51Z"/><path class="cls-4" d="M507.97,53.12c8.91,0,15.04,.32,18.39,.95,4.82,.92,7.77,4.19,8.86,9.81,.75,3.86,1.12,10.38,1.12,19.57s-.37,15.76-1.12,19.62c-1.09,5.62-4.04,8.89-8.86,9.81-3.35,.63-9.44,.95-18.27,.95s-15.17-.32-18.51-.95c-4.82-.92-7.77-4.19-8.86-9.81-.75-3.86-1.12-10.51-1.12-19.96s.37-15.39,1.12-19.23c1.09-5.62,4.04-8.89,8.86-9.81,3.33-.63,9.46-.95,18.39-.95Zm.03,15.31c-6.68,0-10.69,.25-12.04,.74-1.55,.58-2.57,1.87-3.06,3.87-.48,2.01-.73,6-.73,11.97,0,3.61,.13,6.22,.39,7.83,.5,3,2.03,4.72,4.57,5.15,1.88,.35,5.52,.52,10.93,.52,5.06,0,8.43-.13,10.11-.39,1.67-.26,2.91-.84,3.72-1.73,.73-.81,1.22-2,1.48-3.57,.26-1.57,.39-4.15,.39-7.73,0-4.24-.1-7.36-.3-9.35-.2-1.99-.56-3.49-1.09-4.5-.67-1.27-1.77-2.06-3.3-2.36-1.53-.3-5.23-.45-11.08-.45Z"/><polygon class="cls-4" points="546.25 53.91 568.31 53.91 589.94 97.98 591.24 97.98 590.94 53.91 603.74 53.91 603.74 112.93 581.86 112.93 560.13 68.87 558.77 68.87 559.05 112.93 546.25 112.93 546.25 53.91"/><rect class="cls-5" x="614.44" y="53.91" width="13.19" height="59.02"/><path class="cls-4" d="M677.59,90.19h12.58c.09,2.87,.14,4.73,.14,5.56,0,4.54-.47,8.09-1.42,10.65-1.05,2.87-3.1,4.83-6.14,5.86-3.05,1.03-8.31,1.55-15.8,1.55-7.87,0-13.47-.22-16.81-.65-3.34-.43-5.86-1.27-7.55-2.51-1.51-1.12-2.64-2.64-3.39-4.54-.75-1.9-1.23-4.51-1.45-7.82-.18-2.68-.27-7.52-.27-14.52s.09-11.75,.27-14.78c.18-3.02,.54-5.37,1.06-7.04,1.15-3.74,3.48-6.17,6.99-7.28,3.51-1.11,10.6-1.66,21.25-1.66,5.33,0,9.2,.17,11.62,.52,2.42,.35,4.35,.99,5.78,1.94,1.88,1.27,3.2,3.15,3.97,5.64,.77,2.49,1.15,6.16,1.15,10.99,0,.26-.02,1.24-.06,2.94h-12.58c-.06-1.95-.15-3.25-.26-3.91-.11-.66-.34-1.2-.68-1.63-.49-.6-1.71-1.04-3.66-1.31-1.96-.27-4.92-.41-8.9-.41s-6.66,.12-8.17,.37c-1.51,.24-2.58,.73-3.21,1.45-.75,.86-1.27,2.31-1.56,4.36-.29,2.04-.44,5.29-.44,9.75s.13,7.6,.39,9.43c.26,1.83,.77,3.14,1.51,3.95,.71,.78,1.83,1.29,3.38,1.55,1.54,.26,4.27,.39,8.19,.39,4.82,0,8.04-.11,9.64-.34,1.6-.23,2.69-.73,3.25-1.5,.75-1,1.14-3.34,1.18-7Z"/><path class="cls-4" d="M698.16,93.38h12.19c-.02,2.94,.39,4.83,1.24,5.68,.6,.55,1.39,.88,2.34,.98,.96,.1,3.97,.18,9.05,.24,5.32-.03,8.51-.08,9.58-.15,1.07-.07,1.91-.3,2.54-.67,.93-.55,1.39-2.03,1.39-4.46,0-1.76-.33-2.94-.98-3.53-.66-.59-1.99-.92-4.01-.97-1.55,0-4.84-.17-9.86-.52-5.14-.35-8.49-.55-10.04-.6-3.02-.14-5.35-.56-6.97-1.23-1.62-.68-2.89-1.78-3.8-3.31-1.55-2.54-2.33-6.78-2.33-12.72,0-6.66,.89-11.37,2.66-14.11,1.35-2.13,3.43-3.5,6.23-4.09,2.8-.59,8.5-.89,17.09-.89,6.07,0,10.33,.25,12.79,.74,3.79,.75,6.39,2.26,7.8,4.52,1.41,2.26,2.12,6.08,2.12,11.44,0,.49,0,1.41,0,2.77h-12.19c-.04-1.64-.14-2.77-.29-3.38-.15-.61-.45-1.1-.89-1.47-.54-.46-1.5-.76-2.87-.89-1.37-.13-4.28-.19-8.71-.19-5.35,0-8.6,.24-9.77,.71-1.17,.48-1.75,1.79-1.75,3.96s.58,3.34,1.75,3.81c.97,.37,5.41,.73,13.33,1.08,6.67,.29,11.13,.63,13.38,1.02,2.25,.39,4.04,1.13,5.37,2.23,1.51,1.3,2.58,3.08,3.2,5.34,.62,2.26,.94,5.51,.94,9.75,0,5.56-.52,9.7-1.57,12.41-.79,1.99-1.88,3.47-3.28,4.45-1.4,.98-3.37,1.64-5.92,1.99-2.72,.35-7.79,.52-15.22,.52-6.21,0-10.8-.23-13.77-.69-2.97-.46-5.19-1.29-6.69-2.47-1.55-1.27-2.63-2.94-3.22-5.02-.59-2.08-.89-5.24-.89-9.49l.03-2.77Z"/></g><path class="cls-4" d="M764,52.82c1.67,0,3.3,.43,4.9,1.29,1.59,.86,2.83,2.08,3.72,3.68,.89,1.6,1.33,3.26,1.33,4.99s-.44,3.36-1.31,4.95c-.88,1.58-2.1,2.81-3.68,3.69-1.58,.88-3.23,1.31-4.96,1.31s-3.38-.44-4.95-1.31c-1.58-.88-2.81-2.1-3.69-3.69-.88-1.58-1.32-3.23-1.32-4.95s.45-3.4,1.34-4.99c.89-1.6,2.14-2.82,3.73-3.68,1.59-.86,3.22-1.29,4.89-1.29Zm0,1.65c-1.4,0-2.76,.36-4.08,1.08-1.32,.72-2.36,1.74-3.11,3.07-.75,1.33-1.12,2.72-1.12,4.16s.37,2.81,1.1,4.12c.74,1.32,1.76,2.34,3.08,3.08,1.32,.73,2.7,1.1,4.13,1.1s2.81-.37,4.13-1.1c1.32-.73,2.34-1.76,3.08-3.08,.73-1.32,1.09-2.69,1.09-4.12s-.37-2.83-1.12-4.16c-.74-1.33-1.78-2.36-3.11-3.07-1.33-.72-2.69-1.08-4.08-1.08Zm-4.37,13.81v-10.7h3.69c1.26,0,2.17,.1,2.73,.3,.56,.2,1.01,.54,1.35,1.03,.33,.49,.5,1.01,.5,1.57,0,.78-.28,1.46-.84,2.04-.56,.58-1.3,.9-2.23,.98,.38,.16,.68,.35,.91,.57,.43,.42,.96,1.13,1.58,2.12l1.31,2.09h-2.1l-.95-1.69c-.75-1.33-1.35-2.16-1.81-2.49-.32-.25-.78-.37-1.39-.36h-1.02v4.54h-1.73Zm1.73-6.02h2.1c1,0,1.69-.15,2.05-.45,.37-.3,.55-.69,.55-1.18,0-.31-.09-.6-.26-.85-.18-.25-.42-.44-.73-.56-.31-.12-.89-.18-1.74-.18h-1.97v3.21Z"/></svg>